<svg width="75" height="45" viewBox="0 0 75 45" fill="none" xmlns="http://www.w3.org/2000/svg">
<path d="M20.9954 1.29243V1.03968H20.6009C17.2996 1.03691 14.0464 1.83133 11.118 3.3554C8.18957 4.87947 5.67245 7.08813 3.78063 9.79359C1.88881 12.4991 0.678236 15.6213 0.251833 18.895C-0.174571 22.1686 0.195802 25.4968 1.33146 28.5966C2.46713 31.6964 4.33449 34.4762 6.77481 36.6995C9.21513 38.9229 12.1562 40.5242 15.3481 41.3671C18.5399 42.2101 21.8881 42.2699 25.1081 41.5415C28.328 40.813 31.3244 39.3178 33.8425 37.183C41.123 31.6964 45.3273 25.1373 49.5377 18.5658C51.8107 14.8539 54.3079 11.2841 57.0154 7.87627L56.8181 7.71599L57.0216 7.87627C58.0446 6.62179 59.3683 5.64642 60.8694 5.04087C62.3706 4.43532 64.0006 4.21926 65.6077 4.4128C67.2148 4.60634 68.7469 5.20318 70.0614 6.1478C71.3759 7.09243 72.4301 8.35417 73.1261 9.81565C73.822 11.2771 74.137 12.8909 74.0418 14.5068C73.9466 16.1227 73.4443 17.6883 72.5816 19.058C71.7188 20.4276 70.5237 21.5568 69.1074 22.3406C67.6911 23.1243 66.35 23.3746 66.0417 23.4482C65.7335 23.5217 66.185 23.6115 65.7335 23.5493C65.2852 23.4855 66.1676 23.6784 65.7335 23.5493V23.9904C65.7335 23.9904 66.2059 24.0469 67.7071 23.5493C69.2083 23.0516 70.5718 22.2088 71.6881 21.0884C72.8043 19.968 73.6421 18.6013 74.1342 17.0983C74.6263 15.5953 74.7589 13.9977 74.5213 12.4341C74.2837 10.8705 73.6826 9.3845 72.7663 8.09543C71.8501 6.80637 70.6441 5.75025 69.2455 5.01196C67.8469 4.27367 66.2945 3.87381 64.7133 3.84451C63.132 3.81521 61.5659 4.15729 60.1409 4.84326C58.7825 5.4943 57.5848 6.43736 56.6332 7.60502C53.9116 11.0258 51.402 14.6101 49.1185 18.3377C44.3224 25.8277 39.5263 33.3054 30.1684 39.1495C29.3073 39.6241 28.4132 40.0361 27.493 40.3824C23.2014 41.9936 18.4865 42.081 14.1382 40.63C9.78987 39.179 6.07229 36.2777 3.60825 32.4122C1.1442 28.5468 0.0833978 23.9519 0.603548 19.3975C1.1237 14.8431 3.19321 10.6058 6.46536 7.39543C9.88674 3.97405 15.5027 1.31092 20.644 1.56367" fill="url(#paint0_linear_1_94)"/>
<path d="M24.3729 7.24739C24.8048 7.07586 25.1971 6.81783 25.5257 6.48914C25.847 6.16639 26.1043 5.78569 26.2839 5.36718C26.4654 4.92954 26.5576 4.46006 26.5552 3.9863C26.5503 3.03788 26.1714 2.12969 25.5008 1.45905C24.8301 0.788411 23.9219 0.4095 22.9735 0.40464C22.506 0.396866 22.042 0.486588 21.6111 0.668085C21.1801 0.849583 20.7918 1.11887 20.4707 1.45879C20.1367 1.78856 19.8727 2.18245 19.6948 2.61679C19.5168 3.05113 19.4284 3.51695 19.435 3.9863C19.4383 4.92263 19.8125 5.8195 20.4758 6.48043C21.139 7.14136 22.0372 7.51248 22.9735 7.51247C23.453 7.51785 23.9287 7.42774 24.3729 7.24739ZM26.4319 28.7558V10.7859C26.4464 10.68 26.436 10.5721 26.4017 10.4708C26.3674 10.3696 26.31 10.2777 26.2341 10.2023C26.1582 10.127 26.0658 10.0704 25.9643 10.0369C25.8627 10.0033 25.7548 9.99385 25.649 10.0092H25.5134L17.6411 11.1558C17.9116 11.2081 18.1688 11.3142 18.3975 11.4677C18.6262 11.6213 18.8218 11.8192 18.9727 12.0496C19.3284 12.518 19.5231 13.089 19.5275 13.6771V30.0442C19.5174 30.6257 19.3231 31.1891 18.9727 31.6532C18.8253 31.8892 18.6311 32.0925 18.4021 32.2505C18.1731 32.4085 17.9141 32.5178 17.6411 32.5717H28.2813C28.0077 32.5172 27.7481 32.4077 27.5181 32.2498C27.2882 32.0919 27.0927 31.8889 26.9436 31.6532C26.6103 31.1829 26.4315 30.6206 26.4319 30.0442V28.7558Z" fill="url(#paint1_linear_1_94)"/>
<path d="M44.79 24.8846L38.2617 11.2114C38.1113 10.9094 37.8729 10.66 37.578 10.496C37.2831 10.3321 36.9455 10.2612 36.6096 10.2929H28.7497C29.2477 10.3902 29.7002 10.6478 30.0381 11.0265C30.4278 11.4011 30.7546 11.8362 31.0059 12.3149L39.8707 30.9938C40.1976 31.6839 40.3701 32.437 40.3762 33.2007C40.3845 33.966 40.2113 34.7223 39.8707 35.4076L44.79 24.8846ZM46.2141 10.3175C46.6792 10.3159 47.1401 10.4063 47.5701 10.5836C48.0002 10.7608 48.3909 11.0214 48.7198 11.3503C49.0487 11.6792 49.3093 12.0699 49.4866 12.5C49.6638 12.93 49.7542 13.3909 49.7526 13.856C49.7656 14.3796 49.6558 14.899 49.432 15.3726C49.7357 14.7682 50.1058 14.1996 50.5355 13.6773C50.9912 13.1093 51.4989 12.5851 52.052 12.1115C52.5859 11.6474 53.1712 11.2461 53.7966 10.9155C54.3744 10.6085 54.9995 10.4001 55.646 10.299L46.2141 10.3175ZM27.5845 34.4768C28.0829 33.9702 28.7217 33.6247 29.4185 33.4852C30.1153 33.3456 30.8379 33.4183 31.4929 33.6939C31.9048 33.8755 32.2791 34.1327 32.5964 34.4521C32.9262 34.7774 33.1844 35.1679 33.3546 35.5987C33.5399 36.0441 33.6342 36.522 33.632 37.0043C33.6414 37.4626 33.5564 37.918 33.3825 38.3422C33.2086 38.7663 32.9494 39.1503 32.621 39.4701L31.8628 40.2284C31.6266 40.45 31.4871 40.7555 31.4744 41.0791C31.4744 41.5106 31.7703 41.788 32.3683 41.9052C33.0382 42.0217 33.7271 41.9601 34.3656 41.7264C33.5292 42.0615 32.6217 42.1803 31.7272 42.0716C30.8282 41.9731 29.9593 41.6898 29.175 41.2394C28.4145 40.8012 27.7632 40.1963 27.2701 39.4701C26.769 38.7461 26.5041 37.8848 26.5119 37.0043C26.5083 36.532 26.6016 36.064 26.7861 35.6293C26.9706 35.1946 27.2424 34.8023 27.5845 34.4768Z" fill="url(#paint2_linear_1_94)"/>
<path d="M66.0954 12.7957C66.1002 12.2248 66.2858 11.6702 66.6256 11.2114C66.9249 10.7417 67.3924 10.4043 67.9325 10.2682H66.0831V6.18103C64.9608 7.34428 63.6419 8.3001 62.187 9.00443C60.6636 9.722 59.0166 10.1405 57.3354 10.2374C57.8905 10.3768 58.37 10.7259 58.6732 11.2114C59.0103 11.6715 59.1956 12.2253 59.2033 12.7957V27.9176C59.2 28.6042 59.3385 29.2842 59.6102 29.9149C59.8774 30.5214 60.2487 31.0764 60.7075 31.5547C61.168 32.0327 61.7192 32.4141 62.3288 32.6767C62.9537 32.9537 63.6303 33.0945 64.3138 33.0897C64.9153 33.0957 65.5148 33.019 66.0954 32.8616C66.6175 32.7176 67.1251 32.5257 67.6119 32.2883C68.0402 32.0742 68.4523 31.829 68.8448 31.5547C69.2147 31.2896 69.5353 31.0554 69.8127 30.8396C69.4265 31.0816 68.98 31.2098 68.5243 31.2095C68.203 31.214 67.8843 31.1529 67.5875 31.0299C67.2907 30.907 67.0221 30.7247 66.7982 30.4944C66.565 30.2638 66.3818 29.9878 66.2599 29.6834C66.1379 29.3791 66.0798 29.0529 66.0892 28.7251V12.7957H66.0954Z" fill="url(#paint3_linear_1_94)"/>
<path d="M45.9797 35.3521H46.9229V35.1672H46.6209C46.6286 35.0563 46.6286 34.9451 46.6209 34.8343V33.0589C46.6209 32.9171 46.6209 32.8184 46.6209 32.7568C46.6217 32.7288 46.6282 32.7014 46.6398 32.676C46.6515 32.6505 46.6681 32.6277 46.6887 32.6088C46.7481 32.5617 46.8225 32.5376 46.8983 32.541V32.4054H45.9551V32.5903H46.2571C46.2571 32.6766 46.2571 32.7753 46.2571 32.8924V34.6986C46.2571 34.8404 46.2571 34.9452 46.2571 35.0007C46.2508 35.0572 46.2246 35.1096 46.1832 35.1487C46.1238 35.1958 46.0493 35.2199 45.9736 35.2165L45.9797 35.3521Z" fill="url(#paint4_linear_1_94)"/>
<path d="M49.087 35.3521H50.0733V35.1672H49.7219C49.7303 35.0564 49.7303 34.9451 49.7219 34.8343V32.5534H50.0795C50.1941 32.5448 50.3086 32.5728 50.4062 32.6335C50.4892 32.6879 50.5486 32.7715 50.5727 32.8677C50.6084 33.0045 50.625 33.1456 50.622 33.2869H50.7823V32.4054H48.3164V33.2869H48.4705C48.4568 33.0974 48.4951 32.9076 48.5815 32.7383C48.622 32.679 48.6777 32.6317 48.7428 32.6014C48.8079 32.571 48.8799 32.5587 48.9514 32.5657H49.3829V34.8158C49.3901 34.9149 49.3731 35.0143 49.3336 35.1055C49.3052 35.1394 49.2692 35.1661 49.2284 35.1832C49.1877 35.2004 49.1434 35.2076 49.0993 35.2041L49.087 35.3521Z" fill="url(#paint5_linear_1_94)"/>
<path d="M52.2861 33.3432C52.3828 33.2337 52.4562 33.1056 52.502 32.9669C52.5564 32.8355 52.5877 32.6956 52.5945 32.5535C52.5961 32.4551 52.5682 32.3584 52.5143 32.2759C52.4914 32.2462 52.4626 32.2215 52.4297 32.2034C52.3968 32.1854 52.3605 32.1744 52.3231 32.1711C52.2922 32.1705 52.2615 32.1762 52.2328 32.1879C52.2042 32.1996 52.1782 32.2169 52.1565 32.2389C52.134 32.2616 52.1164 32.2886 52.1048 32.3183C52.0931 32.348 52.0876 32.3798 52.0887 32.4117C52.0872 32.4388 52.0914 32.466 52.1009 32.4915C52.1105 32.517 52.1252 32.5402 52.1442 32.5597C52.1605 32.5798 52.1812 32.5959 52.2048 32.6066C52.2283 32.6173 52.254 32.6224 52.2799 32.6214H52.3848V32.6954C52.3847 32.8093 52.3638 32.9222 52.3231 33.0286C52.2908 33.1211 52.2451 33.2084 52.1874 33.2877L52.2861 33.3432Z" fill="url(#paint6_linear_1_94)"/>
<path d="M54.9619 35.42C55.1437 35.4254 55.3245 35.3918 55.4921 35.3213C55.6276 35.2628 55.7427 35.1653 55.8228 35.0413C55.9029 34.9173 55.9445 34.7723 55.9421 34.6247C55.9484 34.4752 55.905 34.3278 55.8188 34.2055C55.7411 34.0969 55.6426 34.0047 55.5291 33.9343C55.4119 33.8665 55.2578 33.7863 55.0667 33.7C54.8756 33.6137 54.7708 33.5582 54.6784 33.5028C54.5869 33.4521 54.5071 33.3828 54.4441 33.2993C54.3797 33.2189 54.3449 33.1188 54.3455 33.0157C54.3441 32.9506 54.3559 32.8859 54.3803 32.8255C54.4047 32.7651 54.4411 32.7103 54.4873 32.6644C54.5952 32.5673 54.7368 32.5164 54.8818 32.5226C54.9827 32.517 55.0835 32.5346 55.1765 32.5742C55.2695 32.6137 55.3522 32.6741 55.4181 32.7507C55.5487 32.909 55.6225 33.1065 55.6277 33.3116H55.7818V32.387H55.5661V32.5719C55.4621 32.4921 55.3423 32.4354 55.2147 32.4054C55.0917 32.3743 54.9655 32.3577 54.8386 32.3561C54.6624 32.3465 54.4871 32.3871 54.3331 32.4733C54.2174 32.5398 54.1233 32.6383 54.0619 32.7568C54.0133 32.8633 53.9881 32.9789 53.9879 33.0959C53.9821 33.2406 54.0232 33.3833 54.105 33.5028C54.179 33.6108 54.2758 33.7013 54.3886 33.7678C54.4934 33.8356 54.6475 33.9096 54.8325 34.0021C54.9657 34.0601 55.0954 34.126 55.2208 34.1994C55.3165 34.2542 55.4003 34.3276 55.4674 34.4151C55.5328 34.5045 55.5674 34.6126 55.5661 34.7234C55.568 34.796 55.5535 34.8681 55.5236 34.9343C55.4937 35.0005 55.4492 35.059 55.3935 35.1056C55.2704 35.2015 55.1179 35.2516 54.9619 35.2473C54.7529 35.2554 54.5484 35.1851 54.3886 35.0501C54.3103 34.9806 54.2478 34.8951 54.2052 34.7994C54.1627 34.7037 54.1411 34.6 54.142 34.4953H53.9756V35.3891H54.1975V35.2042C54.3047 35.2772 54.4235 35.3314 54.5489 35.3645C54.6833 35.4023 54.8223 35.421 54.9619 35.42Z" fill="url(#paint7_linear_1_94)"/>
<path d="M46.6522 39.9755H47.6386V39.7906H47.2872C47.2949 39.6797 47.2949 39.5685 47.2872 39.4577V39.1371C47.2872 38.983 47.2872 38.8412 47.2872 38.6994L47.8112 37.7069C47.8867 37.5575 47.9844 37.4203 48.1009 37.3001C48.1916 37.2196 48.3066 37.1719 48.4276 37.1644V37.0288H47.5769V37.2137H47.9037C47.8265 37.3109 47.7603 37.4164 47.7064 37.5281L47.6201 37.6946C47.4167 38.0706 47.2687 38.3542 47.1701 38.5453C47.0386 38.3686 46.8844 38.1343 46.7077 37.8425L46.5783 37.6329C46.5193 37.5538 46.4831 37.46 46.4735 37.3617C46.4735 37.2384 46.5844 37.1768 46.8002 37.1768V37.0411H45.7275V37.2261H45.9865C46.0342 37.3964 46.1114 37.557 46.2145 37.7008L46.942 38.8535V39.47C46.9469 39.569 46.9301 39.6679 46.8927 39.7597C46.8637 39.7929 46.8275 39.819 46.7869 39.8361C46.7463 39.8532 46.7024 39.8608 46.6584 39.8584L46.6522 39.9755Z" fill="url(#paint8_linear_1_94)"/>
<path d="M51.1583 39.8708C50.9329 39.8798 50.7125 39.8027 50.5419 39.655C50.3774 39.5024 50.2525 39.3119 50.1782 39.1002C50.0964 38.8877 50.0547 38.662 50.0549 38.4344C50.0532 38.2232 50.093 38.0138 50.172 37.8179C50.2471 37.6274 50.3702 37.4596 50.5296 37.3309C50.689 37.2052 50.8876 37.1397 51.0905 37.146C51.3006 37.1448 51.5041 37.2192 51.6638 37.3556C51.8332 37.5041 51.9625 37.6927 52.0399 37.9042C52.126 38.1221 52.1699 38.3543 52.1693 38.5885C52.1716 38.7997 52.1318 39.0093 52.0522 39.205C51.9787 39.393 51.8576 39.5587 51.7008 39.6858C51.5464 39.8075 51.355 39.8727 51.1583 39.8708ZM51.1583 40.0434C51.4409 40.0537 51.7195 39.9738 51.9536 39.8153C52.1687 39.6701 52.3411 39.47 52.4529 39.2358C52.5558 39.0091 52.6104 38.7635 52.6132 38.5145C52.6131 38.2626 52.5562 38.014 52.4468 37.7871C52.3346 37.5513 52.1597 37.3508 51.9413 37.2076C51.7003 37.0488 51.4159 36.9691 51.1275 36.9796C50.8431 36.97 50.5629 37.0498 50.3261 37.2076C50.1144 37.3549 49.9445 37.5546 49.8329 37.7871C49.7235 38.014 49.6666 38.2626 49.6665 38.5145C49.6661 38.7678 49.7207 39.0181 49.8268 39.2481C49.9329 39.4825 50.1041 39.6815 50.32 39.8215C50.5695 39.9756 50.859 40.0528 51.1522 40.0434H51.1583Z" fill="url(#paint9_linear_1_94)"/>
<path d="M55.455 40.0434C55.6176 40.0571 55.7809 40.0292 55.9298 39.9623C56.0786 39.8954 56.208 39.7918 56.3057 39.6612C56.4971 39.3666 56.5919 39.0197 56.5769 38.6687V37.7008C56.5769 37.559 56.5769 37.4604 56.5769 37.3987C56.5833 37.3422 56.6095 37.2898 56.6509 37.2508C56.7098 37.2026 56.7846 37.1784 56.8605 37.183V37.0474H56.0838V37.2323H56.3797C56.3797 37.3186 56.3797 37.4172 56.3797 37.5344V38.7118C56.3884 38.9991 56.3111 39.2825 56.1577 39.5255C56.086 39.6204 55.9927 39.6968 55.8854 39.7483C55.7782 39.7998 55.6602 39.8249 55.5413 39.8215C55.3461 39.8346 55.153 39.7753 54.9988 39.655C54.8679 39.5405 54.7772 39.3871 54.7399 39.2173C54.6956 39.0149 54.6749 38.808 54.6782 38.6009V37.5467C54.6766 37.4659 54.6935 37.3857 54.7276 37.3124C54.7276 37.2446 54.8385 37.2138 54.9618 37.2138V37.0782H53.9878V37.257H54.2899C54.2899 37.4049 54.2899 37.5652 54.2899 37.744V38.5947C54.2816 38.8844 54.319 39.1736 54.4008 39.4516C54.4624 39.6511 54.5937 39.8218 54.7707 39.9324C54.9853 40.0283 55.2211 40.0666 55.455 40.0434Z" fill="url(#paint10_linear_1_94)"/>
<path d="M59.1351 38.5145H58.9501V37.7193C58.945 37.6207 58.945 37.522 58.9501 37.4234C58.9571 37.3683 58.9807 37.3167 59.018 37.2754C59.079 37.2327 59.1533 37.213 59.2276 37.22C59.4296 37.2052 59.6303 37.2619 59.7947 37.3802C59.8576 37.4416 59.9066 37.5157 59.9385 37.5976C59.9704 37.6795 59.9844 37.7672 59.9796 37.8549C59.992 38.2864 59.7207 38.5145 59.1351 38.5145ZM58.2967 39.9756H59.2399V39.7906H58.9378C58.9455 39.6798 58.9455 39.5686 58.9378 39.4577V38.6502H59.2276L59.3324 38.7735C59.3748 38.8329 59.4139 38.8946 59.4495 38.9584L59.505 39.0447L59.7885 39.4947C59.8563 39.6057 59.918 39.692 59.9673 39.7598C60.0246 39.8315 60.0886 39.8976 60.1584 39.9571H60.6886V39.8214C60.6137 39.8227 60.5397 39.8058 60.4728 39.7721C60.4175 39.7413 60.3692 39.6993 60.331 39.6488C60.2879 39.5933 60.2386 39.5194 60.1769 39.4207L59.8933 38.9769C59.8439 38.8961 59.7904 38.8179 59.7331 38.7426L59.6036 38.6132C59.841 38.5841 60.0599 38.4703 60.2201 38.2926C60.3342 38.1443 60.395 37.9619 60.3927 37.7748C60.3996 37.666 60.3776 37.5574 60.3288 37.4599C60.2801 37.3625 60.2064 37.2797 60.1153 37.22C59.8518 37.0745 59.5527 37.0061 59.2522 37.0227H58.9501H58.2905V37.2076H58.5926C58.5926 37.2939 58.5926 37.3926 58.5926 37.5097V39.3159C58.5926 39.4577 58.5926 39.5625 58.5926 39.618C58.5862 39.6745 58.56 39.7269 58.5186 39.766C58.4598 39.8141 58.3849 39.8384 58.309 39.8338L58.2967 39.9756Z" fill="url(#paint11_linear_1_94)"/>
<path d="M46.6212 44.599H47.6075V44.4141H47.2561C47.2639 44.3033 47.2639 44.192 47.2561 44.0812V41.8003H47.6137C47.7283 41.7917 47.8427 41.8198 47.9404 41.8804C48.0217 41.9365 48.0807 42.0194 48.1068 42.1147C48.1426 42.2515 48.1592 42.3925 48.1562 42.5339H48.3164V41.6523H45.8506V42.5339H46.0047C45.9909 42.3443 46.0293 42.1546 46.1157 41.9852C46.1562 41.926 46.2119 41.8787 46.277 41.8483C46.342 41.8179 46.4141 41.8056 46.4855 41.8126H46.9171V44.0627C46.9242 44.1619 46.9073 44.2613 46.8678 44.3525C46.8394 44.3864 46.8033 44.413 46.7626 44.4302C46.7218 44.4473 46.6776 44.4545 46.6335 44.4511L46.6212 44.599Z" fill="url(#paint12_linear_1_94)"/>
<path d="M51.0905 44.6668C51.254 44.6804 51.4182 44.6525 51.568 44.5857C51.7178 44.5188 51.8483 44.4153 51.9474 44.2846C52.1335 43.9876 52.2278 43.6424 52.2187 43.2921V42.3242C52.2187 42.1824 52.2187 42.0838 52.2187 42.0222C52.225 41.9656 52.2513 41.9132 52.2926 41.8742C52.352 41.8271 52.4265 41.803 52.5022 41.8064V41.6708H51.7255V41.8557H52.0214C52.0214 41.942 52.0214 42.0407 52.0214 42.1578V43.3352C52.0287 43.6215 51.9539 43.9039 51.8056 44.149C51.7339 44.2439 51.6405 44.3202 51.5333 44.3717C51.4261 44.4232 51.3081 44.4483 51.1892 44.4449C51.002 44.4645 50.8145 44.4115 50.6653 44.2967C50.5161 44.182 50.4168 44.0143 50.3878 43.8284C50.3411 43.6263 50.3184 43.4194 50.32 43.2119V42.1578C50.3183 42.077 50.3352 41.9968 50.3693 41.9235C50.4063 41.8557 50.4802 41.8249 50.6035 41.8249V41.6893H49.6665V41.868H49.9686C49.9686 42.016 49.9686 42.1763 49.9686 42.355V43.2058C49.9603 43.4955 49.9977 43.7846 50.0795 44.0627C50.1411 44.2622 50.2724 44.4328 50.4494 44.5435C50.6498 44.6364 50.87 44.6788 51.0905 44.6668Z" fill="url(#paint13_linear_1_94)"/>
<path d="M54.7889 43.138H54.604V42.3366C54.604 42.1948 54.604 42.0961 54.604 42.0407C54.6103 41.9841 54.6365 41.9317 54.6779 41.8927C54.7388 41.8494 54.8133 41.8297 54.8875 41.8372C55.0876 41.8223 55.2865 41.8791 55.4485 41.9975C55.5114 42.0589 55.5604 42.133 55.5923 42.2149C55.6242 42.2967 55.6382 42.3845 55.6335 42.4722C55.6273 42.9099 55.3437 43.138 54.7889 43.138ZM53.9505 44.599H54.8937V44.414H54.5916C54.5916 44.3401 54.5916 44.2291 54.5916 44.0812V43.2674H54.8752L54.9862 43.3907L55.1033 43.5757L55.1526 43.662L55.4362 44.112C55.504 44.2229 55.5656 44.3093 55.615 44.3771C55.6722 44.4488 55.7362 44.5148 55.8061 44.5743H56.3362V44.4387C56.2673 44.4397 56.1991 44.4246 56.1371 44.3946C56.075 44.3646 56.0208 44.3207 55.9787 44.2661C55.9355 44.2106 55.8862 44.1366 55.8246 44.038L55.541 43.5941C55.4916 43.5134 55.4381 43.4352 55.3807 43.3599L55.2512 43.2304C55.4886 43.2014 55.7076 43.0875 55.8677 42.9099C55.9818 42.7616 56.0426 42.5792 56.0403 42.392C56.0479 42.2839 56.0268 42.1756 55.9792 42.0782C55.9316 41.9808 55.8591 41.8977 55.7691 41.8372C55.503 41.6928 55.2022 41.6245 54.8999 41.64H54.5978H53.9443V41.8249H54.2464C54.2396 41.9255 54.2396 42.0264 54.2464 42.127V43.9332C54.2515 44.0338 54.2515 44.1346 54.2464 44.2353C54.2395 44.2904 54.2158 44.342 54.1786 44.3832C54.1192 44.4304 54.0448 44.4544 53.969 44.451L53.9505 44.599Z" fill="url(#paint14_linear_1_94)"/>
<path d="M59.9186 44.6668H60.122V42.2009C60.1145 42.1333 60.1145 42.0651 60.122 41.9975L60.2022 41.8804C60.2577 41.8462 60.322 41.829 60.3871 41.8311V41.6954H59.6165V41.8804H59.9186C59.9118 41.9809 59.9118 42.0819 59.9186 42.1824V44.0996L58.137 41.7139H57.6377V41.8989H57.9213V44.1921C57.9241 44.2738 57.9049 44.3547 57.8658 44.4264C57.8418 44.462 57.8083 44.4902 57.769 44.5077C57.7298 44.5251 57.6864 44.5311 57.6439 44.525V44.6606H58.4083V44.4757H58.1124C58.1124 44.3894 58.1124 44.2476 58.1124 44.0627V42.2687L59.9186 44.6668Z" fill="url(#paint15_linear_1_94)"/>
<defs>
<linearGradient id="paint0_linear_1_94" x1="37.358" y1="1.03967" x2="37.358" y2="42.0469" gradientUnits="userSpaceOnUse">
<stop offset="0.19645" stop-color="white"/>
<stop offset="0.403533" stop-color="white"/>
<stop offset="0.592708" stop-color="white"/>
<stop offset="0.8375" stop-color="white"/>
</linearGradient>
<linearGradient id="paint1_linear_1_94" x1="22.9612" y1="0.404175" x2="22.9612" y2="32.5717" gradientUnits="userSpaceOnUse">
<stop offset="0.19645" stop-color="white"/>
<stop offset="0.403533" stop-color="white"/>
<stop offset="0.592708" stop-color="white"/>
<stop offset="0.8375" stop-color="white"/>
</linearGradient>
<linearGradient id="paint2_linear_1_94" x1="41.0788" y1="10.2855" x2="41.0788" y2="42.1107" gradientUnits="userSpaceOnUse">
<stop offset="0.19645" stop-color="white"/>
<stop offset="0.403533" stop-color="white"/>
<stop offset="0.592708" stop-color="white"/>
<stop offset="0.8375" stop-color="white"/>
</linearGradient>
<linearGradient id="paint3_linear_1_94" x1="63.5741" y1="6.18103" x2="63.5741" y2="33.09" gradientUnits="userSpaceOnUse">
<stop offset="0.19645" stop-color="white"/>
<stop offset="0.403533" stop-color="white"/>
<stop offset="0.592708" stop-color="white"/>
<stop offset="0.8375" stop-color="white"/>
</linearGradient>
<linearGradient id="paint4_linear_1_94" x1="46.439" y1="32.4054" x2="46.439" y2="35.3521" gradientUnits="userSpaceOnUse">
<stop offset="0.19645" stop-color="white"/>
<stop offset="0.403533" stop-color="white"/>
<stop offset="0.592708" stop-color="white"/>
<stop offset="0.8375" stop-color="white"/>
</linearGradient>
<linearGradient id="paint5_linear_1_94" x1="49.5493" y1="32.4054" x2="49.5493" y2="35.3521" gradientUnits="userSpaceOnUse">
<stop offset="0.19645" stop-color="white"/>
<stop offset="0.403533" stop-color="white"/>
<stop offset="0.592708" stop-color="white"/>
<stop offset="0.8375" stop-color="white"/>
</linearGradient>
<linearGradient id="paint6_linear_1_94" x1="52.3415" y1="32.171" x2="52.3415" y2="33.3432" gradientUnits="userSpaceOnUse">
<stop offset="0.19645" stop-color="white"/>
<stop offset="0.403533" stop-color="white"/>
<stop offset="0.592708" stop-color="white"/>
<stop offset="0.8375" stop-color="white"/>
</linearGradient>
<linearGradient id="paint7_linear_1_94" x1="54.9591" y1="32.3547" x2="54.9591" y2="35.4205" gradientUnits="userSpaceOnUse">
<stop offset="0.19645" stop-color="white"/>
<stop offset="0.403533" stop-color="white"/>
<stop offset="0.592708" stop-color="white"/>
<stop offset="0.8375" stop-color="white"/>
</linearGradient>
<linearGradient id="paint8_linear_1_94" x1="47.0776" y1="37.0288" x2="47.0776" y2="39.9755" gradientUnits="userSpaceOnUse">
<stop offset="0.19645" stop-color="white"/>
<stop offset="0.403533" stop-color="white"/>
<stop offset="0.592708" stop-color="white"/>
<stop offset="0.8375" stop-color="white"/>
</linearGradient>
<linearGradient id="paint9_linear_1_94" x1="51.1399" y1="36.9786" x2="51.1399" y2="40.0443" gradientUnits="userSpaceOnUse">
<stop offset="0.19645" stop-color="white"/>
<stop offset="0.403533" stop-color="white"/>
<stop offset="0.592708" stop-color="white"/>
<stop offset="0.8375" stop-color="white"/>
</linearGradient>
<linearGradient id="paint10_linear_1_94" x1="55.4242" y1="37.0474" x2="55.4242" y2="40.05" gradientUnits="userSpaceOnUse">
<stop offset="0.19645" stop-color="white"/>
<stop offset="0.403533" stop-color="white"/>
<stop offset="0.592708" stop-color="white"/>
<stop offset="0.8375" stop-color="white"/>
</linearGradient>
<linearGradient id="paint11_linear_1_94" x1="59.4896" y1="37.0203" x2="59.4896" y2="39.9756" gradientUnits="userSpaceOnUse">
<stop offset="0.19645" stop-color="white"/>
<stop offset="0.403533" stop-color="white"/>
<stop offset="0.592708" stop-color="white"/>
<stop offset="0.8375" stop-color="white"/>
</linearGradient>
<linearGradient id="paint12_linear_1_94" x1="47.0835" y1="41.6523" x2="47.0835" y2="44.599" gradientUnits="userSpaceOnUse">
<stop offset="0.19645" stop-color="white"/>
<stop offset="0.403533" stop-color="white"/>
<stop offset="0.592708" stop-color="white"/>
<stop offset="0.8375" stop-color="white"/>
</linearGradient>
<linearGradient id="paint13_linear_1_94" x1="51.0844" y1="41.6708" x2="51.0844" y2="44.6701" gradientUnits="userSpaceOnUse">
<stop offset="0.19645" stop-color="white"/>
<stop offset="0.403533" stop-color="white"/>
<stop offset="0.592708" stop-color="white"/>
<stop offset="0.8375" stop-color="white"/>
</linearGradient>
<linearGradient id="paint14_linear_1_94" x1="55.1403" y1="41.6378" x2="55.1403" y2="44.599" gradientUnits="userSpaceOnUse">
<stop offset="0.19645" stop-color="white"/>
<stop offset="0.403533" stop-color="white"/>
<stop offset="0.592708" stop-color="white"/>
<stop offset="0.8375" stop-color="white"/>
</linearGradient>
<linearGradient id="paint15_linear_1_94" x1="59.0124" y1="41.6954" x2="59.0124" y2="44.6668" gradientUnits="userSpaceOnUse">
<stop offset="0.19645" stop-color="white"/>
<stop offset="0.403533" stop-color="white"/>
<stop offset="0.592708" stop-color="white"/>
<stop offset="0.8375" stop-color="white"/>
</linearGradient>
</defs>
</svg>
