<svg width="23" height="22" viewBox="0 0 23 22" fill="none" xmlns="http://www.w3.org/2000/svg">
<path d="M17.2148 13.8572L20.072 13.1429L20.7863 16.0001" stroke="#F8F8F8" stroke-width="2" stroke-linecap="round" stroke-linejoin="round"/>
<path d="M20.072 13.143C19.4375 14.941 18.2849 16.511 16.7596 17.655C15.2342 18.799 13.4043 19.4659 11.5006 19.5715C9.74072 19.5719 8.02344 19.0305 6.58196 18.0209C5.14049 17.0114 4.04469 15.5826 3.44342 13.9287M5.78627 8.14298L2.92913 8.85726L2.21484 6.00012" stroke="#F8F8F8" stroke-width="2" stroke-linecap="round" stroke-linejoin="round"/>
<path d="M2.92969 8.85728C4.12969 5.57157 7.8154 2.42871 11.5011 2.42871C13.2695 2.43368 14.9931 2.98551 16.4356 4.00853C17.8781 5.03156 18.9688 6.47571 19.5583 8.143" stroke="#F8F8F8" stroke-width="2" stroke-linecap="round" stroke-linejoin="round"/>
</svg>
