<svg width="17" height="18" viewBox="0 0 17 18" fill="none" xmlns="http://www.w3.org/2000/svg">
<path d="M2.12529 6.17131e-07C1.84634 -0.000213429 1.57008 0.0552543 1.31229 0.163236C1.05449 0.271217 0.820227 0.429596 0.622865 0.629325C0.425503 0.829055 0.268913 1.06622 0.16204 1.32728C0.0551674 1.58833 0.000105544 1.86817 0 2.15079C0 3.34023 0.951275 4.32601 2.12288 4.32601C3.29609 4.32601 4.24817 3.34024 4.24817 2.15242C4.24838 1.86983 4.19363 1.58998 4.08704 1.32884C3.98045 1.06771 3.82411 0.830418 3.62696 0.630527C3.42981 0.430635 3.19572 0.272064 2.93805 0.163875C2.68039 0.055686 2.40421 5.36041e-07 2.12529 6.17131e-07ZM12.492 5.70284C10.7077 5.70284 9.68725 6.64788 9.19673 7.58804H9.14527V5.95621H5.62885V17.9232H9.29323V11.9996C9.29323 10.4386 9.40902 8.92983 11.3156 8.92983C13.1948 8.92983 13.2222 10.7099 13.2222 12.0982V17.9232H16.8865V11.3503C16.8865 8.13388 16.2038 5.70284 12.492 5.70284ZM0.291896 5.95539V17.9232H3.95869V5.95539H0.291896Z" fill="#5B0076"/>
</svg>
