<svg width="21" height="16" viewBox="0 0 21 16" fill="none" xmlns="http://www.w3.org/2000/svg">
<path d="M20.103 1.86037C19.3503 2.18017 18.5518 2.38964 17.7342 2.48176C18.595 1.98713 19.2391 1.20924 19.5468 0.29284C18.7373 0.753242 17.8522 1.07834 16.9293 1.25426C16.3638 0.674154 15.6296 0.270731 14.8221 0.0964487C14.0146 -0.077834 13.1711 -0.0149128 12.4013 0.27703C11.6315 0.568973 10.9711 1.07643 10.5059 1.73342C10.0406 2.39041 9.79214 3.16653 9.79269 3.96087C9.79269 4.27196 9.82871 4.57341 9.90158 4.862C8.2611 4.78451 6.65604 4.37615 5.19101 3.66353C3.72598 2.95092 2.43385 1.95004 1.39884 0.726122C1.0311 1.33023 0.838215 2.01766 0.840139 2.71729C0.840139 4.08949 1.56636 5.30171 2.67538 6.01152C2.02032 5.99158 1.37979 5.82122 0.807472 5.51474V5.56538C0.806905 6.47951 1.13618 7.36563 1.73934 8.07315C2.3425 8.78066 3.18233 9.26591 4.1161 9.44643C3.50887 9.60625 2.87148 9.6299 2.25321 9.51557C2.51657 10.302 3.02931 10.9898 3.7198 11.483C4.41029 11.9762 5.24405 12.2501 6.10462 12.2664C5.2491 12.9108 4.26956 13.387 3.22205 13.6677C2.17455 13.9484 1.07964 14.0281 0 13.9022C1.8851 15.0665 4.07986 15.6847 6.32157 15.6828C13.9088 15.6828 18.0584 9.65061 18.0584 4.41907C18.0584 4.25026 18.0517 4.07662 18.045 3.90701C18.8512 3.34676 19.548 2.65416 20.103 1.86118V1.86037Z" fill="#5B0076"/>
</svg>
