<svg width="18" height="17" viewBox="0 0 18 17" fill="none" xmlns="http://www.w3.org/2000/svg">
<path d="M5.20186 0C2.34643 0 0 2.17618 0 4.83105V11.5986C0 14.2504 2.34321 16.4296 5.20186 16.4296H12.4888C15.3442 16.4296 17.6907 14.2534 17.6907 11.5986V4.8318C17.6907 2.17916 15.3475 0 12.4888 0H5.20186ZM5.20186 1.4936H12.4888C12.9609 1.49301 13.4285 1.57893 13.8648 1.74645C14.3011 1.91396 14.6975 2.15977 15.0313 2.4698C15.3651 2.77983 15.6298 3.14798 15.8102 3.55317C15.9905 3.95835 16.0831 4.39261 16.0824 4.83105V11.5986C16.0831 12.037 15.9905 12.4713 15.8102 12.8764C15.6298 13.2816 15.3651 13.6498 15.0313 13.9598C14.6975 14.2698 14.3011 14.5156 13.8648 14.6832C13.4285 14.8507 12.9609 14.9366 12.4888 14.936H5.20266C4.7305 14.9367 4.26283 14.8508 3.82645 14.6834C3.39007 14.5159 2.99357 14.2701 2.65966 13.9601C2.32575 13.65 2.06099 13.2818 1.88057 12.8766C1.70015 12.4714 1.60761 12.0371 1.60824 11.5986V4.8318C1.6075 4.39329 1.69994 3.95896 1.88026 3.55368C2.06059 3.14841 2.32525 2.78017 2.65909 2.47007C2.99292 2.15996 3.38937 1.91408 3.8257 1.74652C4.26204 1.57896 4.72969 1.49301 5.20186 1.4936ZM13.5945 3.1276C13.4987 3.1272 13.4038 3.14444 13.3152 3.1783C13.2266 3.21216 13.1461 3.26198 13.0784 3.32489C13.0106 3.3878 12.957 3.46254 12.9205 3.54481C12.8841 3.62708 12.8655 3.71524 12.8659 3.8042C12.8659 4.18059 13.1892 4.4808 13.5945 4.4808C13.6903 4.4813 13.7853 4.46414 13.874 4.43032C13.9627 4.3965 14.0433 4.3467 14.1111 4.28378C14.1789 4.22086 14.2326 4.14608 14.2691 4.06377C14.3057 3.98145 14.3242 3.89323 14.3238 3.8042C14.3242 3.71518 14.3057 3.62695 14.2691 3.54464C14.2326 3.46232 14.1789 3.38754 14.1111 3.32462C14.0433 3.26171 13.9627 3.2119 13.874 3.17808C13.7853 3.14426 13.6903 3.12711 13.5945 3.1276ZM8.84533 3.734C6.19173 3.734 4.02061 5.75036 4.02061 8.21481C4.02061 10.6792 6.19173 12.6956 8.84533 12.6956C11.4989 12.6956 13.6701 10.6792 13.6701 8.21481C13.6701 5.75036 11.4989 3.734 8.84533 3.734ZM8.84533 5.2276C10.6329 5.2276 12.0618 6.55467 12.0618 8.21481C12.0618 9.87494 10.6329 11.202 8.84533 11.202C7.05777 11.202 5.62885 9.87494 5.62885 8.21481C5.62885 6.55467 7.05777 5.2276 8.84533 5.2276Z" fill="#5B0076"/>
</svg>
