<svg width="16" height="15" viewBox="0 0 16 15" fill="none" xmlns="http://www.w3.org/2000/svg">
<path d="M4.82473 0C3.54513 0 2.31794 0.49693 1.41313 1.38147C0.508318 2.26601 0 3.46571 0 4.71663V10.2194C0 11.4703 0.508318 12.67 1.41313 13.5545C2.31794 14.4391 3.54513 14.936 4.82473 14.936H10.4536C11.7332 14.936 12.9604 14.4391 13.8652 13.5545C14.77 12.67 15.2783 11.4703 15.2783 10.2194V6.28885C15.2783 6.08036 15.1936 5.88041 15.0428 5.73299C14.892 5.58556 14.6874 5.50274 14.4742 5.50274H13.6701C13.4568 5.50274 13.2523 5.41992 13.1015 5.2725C12.9507 5.12507 12.8659 4.92512 12.8659 4.71663C12.8659 3.46571 12.3576 2.26601 11.4528 1.38147C10.548 0.49693 9.32081 0 8.04121 0H4.82473ZM4.82473 3.93053H8.04121C8.48348 3.93053 8.84533 4.28428 8.84533 4.71663C8.84533 5.14899 8.48348 5.50274 8.04121 5.50274H4.82473C4.38246 5.50274 4.02061 5.14899 4.02061 4.71663C4.02061 4.28428 4.38246 3.93053 4.82473 3.93053ZM4.82473 9.43327H10.4536C10.8958 9.43327 11.2577 9.78702 11.2577 10.2194C11.2577 10.6517 10.8958 11.0055 10.4536 11.0055H4.82473C4.38246 11.0055 4.02061 10.6517 4.02061 10.2194C4.02061 9.78702 4.38246 9.43327 4.82473 9.43327Z" fill="#5B0076"/>
</svg>
